<svg xmlns="http://www.w3.org/2000/svg" viewBox="0 0 800 520" font-family="'Circular Std','Inter','Helvetica Neue',Arial,sans-serif">
  <defs>
    <style>
      text { fill: #333; }
      .title { font-size: 16px; fill: #1A1A1A; font-weight: 600; }
      .panel-title { font-size: 11px; fill: #1A1A1A; font-weight: 600; }
      .panel-sub { font-size: 11px; fill: #999; letter-spacing: 1.5px; }
      .label { font-size: 11px; fill: #777; }
      .label-bold { font-size: 11px; fill: #1A1A1A; font-weight: 600; }
      .label-sm { font-size: 9px; fill: #999; }
      .col-line { stroke: #333; stroke-width: 1.5; }
      .col-line-back { stroke: #999; stroke-width: 1; }
      .slab { fill: #F0F0F0; stroke: #CCC; stroke-width: 0.75; }
      .slab-top { fill: #E8E8E8; stroke: #BBB; stroke-width: 0.75; }
      .foundation { fill: #E0E0E0; stroke: #BBB; stroke-width: 1; }
      .beam-inner { stroke: #DDD; stroke-width: 0.5; }
      .page-grid-col { stroke: #3B7DD8; stroke-width: 0.75; stroke-dasharray: 4,3; }
      .page-grid-row { stroke: #E85D3A; stroke-width: 0.75; stroke-dasharray: 4,3; }
      .module-fill { fill: #F0F4FA; }
      .baseline-line { stroke: #E85D3A; stroke-width: 0.4; }
      .connector { stroke: #BBB; stroke-width: 1; stroke-dasharray: 2,4; }
      .callout-line { stroke: #333; stroke-width: 0.75; }
      .callout-dot { fill: #333; }
      .page-bg { fill: #FAFAFA; stroke: #D0D0D0; stroke-width: 1; }
    </style>
  </defs>
  <rect width="800" height="520" fill="white"/>
  <text x="400" y="38" text-anchor="middle" class="title">From Column Grid to Modular Grid</text>
  <text x="180" y="68" text-anchor="middle" class="panel-title">Architecture</text>
  <text x="180" y="83" text-anchor="middle" class="panel-sub">THE COLUMN GRID</text>
  <polygon points="100,375 260,375 285,395 125,395" class="foundation"/>
  <line x1="153" y1="375" x2="178" y2="395" class="beam-inner"/>
  <line x1="206" y1="375" x2="231" y2="395" class="beam-inner"/>
  <line x1="125" y1="382" x2="260" y2="382" class="beam-inner"/>
  <polygon points="100,300 260,300 285,320 125,320" class="slab"/>
  <line x1="153" y1="300" x2="178" y2="320" class="beam-inner"/>
  <line x1="206" y1="300" x2="231" y2="320" class="beam-inner"/>
  <line x1="125" y1="307" x2="260" y2="307" class="beam-inner"/>
  <polygon points="100,225 260,225 285,245 125,245" class="slab-top"/>
  <line x1="153" y1="225" x2="178" y2="245" class="beam-inner"/>
  <line x1="206" y1="225" x2="231" y2="245" class="beam-inner"/>
  <line x1="125" y1="232" x2="260" y2="232" class="beam-inner"/>
  <polygon points="100,150 260,150 285,170 125,170" class="slab-top"/>
  <line x1="153" y1="150" x2="178" y2="170" class="beam-inner"/>
  <line x1="206" y1="150" x2="231" y2="170" class="beam-inner"/>
  <line x1="125" y1="157" x2="260" y2="157" class="beam-inner"/>
  <line x1="100" y1="150" x2="100" y2="375" class="col-line"/>
  <line x1="153" y1="150" x2="153" y2="375" class="col-line-back"/>
  <line x1="206" y1="150" x2="206" y2="375" class="col-line-back"/>
  <line x1="260" y1="150" x2="260" y2="375" class="col-line"/>
  <line x1="125" y1="170" x2="125" y2="395" class="col-line"/>
  <line x1="178" y1="170" x2="178" y2="395" class="col-line-back"/>
  <line x1="231" y1="170" x2="231" y2="395" class="col-line-back"/>
  <line x1="285" y1="170" x2="285" y2="395" class="col-line"/>
  <g fill="#333">
    <rect x="97" y="372" width="6" height="6" rx="0.5"/>
    <rect x="150" y="372" width="6" height="6" rx="0.5"/>
    <rect x="203" y="372" width="6" height="6" rx="0.5"/>
    <rect x="257" y="372" width="6" height="6" rx="0.5"/>
    <rect x="122" y="392" width="6" height="6" rx="0.5"/>
    <rect x="175" y="392" width="6" height="6" rx="0.5"/>
    <rect x="228" y="392" width="6" height="6" rx="0.5"/>
    <rect x="282" y="392" width="6" height="6" rx="0.5"/>
  </g>
  <line x1="100" y1="150" x2="125" y2="170" stroke="#999" stroke-width="0.5"/>
  <line x1="260" y1="150" x2="285" y2="170" stroke="#999" stroke-width="0.5"/>
  <line x1="125" y1="170" x2="285" y2="170" stroke="#BBB" stroke-width="0.75"/>
  <line x1="100" y1="225" x2="125" y2="245" stroke="#999" stroke-width="0.5"/>
  <line x1="260" y1="225" x2="285" y2="245" stroke="#999" stroke-width="0.5"/>
  <line x1="100" y1="300" x2="125" y2="320" stroke="#999" stroke-width="0.5"/>
  <line x1="260" y1="300" x2="285" y2="320" stroke="#999" stroke-width="0.5"/>
  <circle cx="100" cy="290" r="2" class="callout-dot"/>
  <line x1="100" y1="290" x2="30" y2="290" class="callout-line"/>
  <text x="26" y="285" text-anchor="end" class="label-bold">Load</text>
  <text x="26" y="297" text-anchor="end" class="label-bold">Bearing</text>
  <line x1="100" y1="140" x2="260" y2="140" stroke="#BBB" stroke-width="0.5"/>
  <line x1="100" y1="137" x2="100" y2="143" stroke="#BBB" stroke-width="0.5"/>
  <line x1="153" y1="137" x2="153" y2="143" stroke="#BBB" stroke-width="0.5"/>
  <line x1="206" y1="137" x2="206" y2="143" stroke="#BBB" stroke-width="0.5"/>
  <line x1="260" y1="137" x2="260" y2="143" stroke="#BBB" stroke-width="0.5"/>
  <text x="180" y="133" text-anchor="middle" class="label-bold">Spatial Rhythm</text>
  <text x="127" y="133" text-anchor="middle" class="label-sm">Bay</text>
  <text x="233" y="133" text-anchor="middle" class="label-sm">Bay</text>
  <text x="165" y="280" text-anchor="middle" font-size="9" fill="#999" font-style="italic">Structural</text>
  <text x="165" y="291" text-anchor="middle" font-size="9" fill="#999" font-style="italic">Bay</text>
  <circle cx="205" cy="395" r="2" class="callout-dot"/>
  <line x1="205" y1="395" x2="205" y2="418" class="callout-line"/>
  <text x="205" y="430" text-anchor="middle" class="label-bold">Foundation Slab</text>
  <circle cx="285" cy="320" r="2" class="callout-dot"/>
  <line x1="285" y1="320" x2="318" y2="320" class="callout-line"/>
  <text x="322" y="315" class="label-bold">Floor</text>
  <text x="322" y="327" class="label-bold">Slab</text>
  <line x1="348" y1="290" x2="428" y2="290" class="connector"/>
  <polygon points="423,286 431,290 423,294" fill="#BBB"/>
  <text x="388" y="275" text-anchor="middle" font-size="11" fill="#999" font-weight="600" letter-spacing="1">SAME</text>
  <text x="388" y="288" text-anchor="middle" font-size="11" fill="#999" font-weight="600" letter-spacing="1">LOGIC</text>
  <text x="388" y="330" text-anchor="middle" font-size="9" fill="#BBB">Column &#x2192; Column line</text>
  <text x="388" y="344" text-anchor="middle" font-size="9" fill="#BBB">Bay &#x2192; Module</text>
  <text x="388" y="358" text-anchor="middle" font-size="9" fill="#BBB">Floor slab &#x2192; Row</text>
  <text x="388" y="372" text-anchor="middle" font-size="9" fill="#BBB">Foundation &#x2192; Baseline</text>
  <text x="610" y="68" text-anchor="middle" class="panel-title">Design</text>
  <text x="610" y="83" text-anchor="middle" class="panel-sub">THE MODULAR GRID</text>
  <rect x="460" y="100" width="300" height="390" class="page-bg" rx="1"/>
  <rect x="485" y="125" width="250" height="340" fill="none" stroke="#DDD" stroke-width="0.5" stroke-dasharray="4,3"/>
  <rect x="485" y="125" width="76" height="72" class="module-fill"/>
  <rect x="572" y="125" width="76" height="72" class="module-fill"/>
  <rect x="659" y="125" width="76" height="72" class="module-fill"/>
  <rect x="485" y="209" width="76" height="72" class="module-fill"/>
  <rect x="572" y="209" width="76" height="72" class="module-fill"/>
  <rect x="659" y="209" width="76" height="72" class="module-fill"/>
  <rect x="485" y="293" width="76" height="72" class="module-fill"/>
  <rect x="572" y="293" width="76" height="72" class="module-fill"/>
  <rect x="659" y="293" width="76" height="72" class="module-fill"/>
  <rect x="485" y="377" width="76" height="72" class="module-fill"/>
  <rect x="572" y="377" width="76" height="72" class="module-fill"/>
  <rect x="659" y="377" width="76" height="72" class="module-fill"/>
  <line x1="485" y1="125" x2="485" y2="465" class="page-grid-col"/>
  <line x1="561" y1="125" x2="561" y2="465" class="page-grid-col"/>
  <line x1="572" y1="125" x2="572" y2="465" class="page-grid-col"/>
  <line x1="648" y1="125" x2="648" y2="465" class="page-grid-col"/>
  <line x1="659" y1="125" x2="659" y2="465" class="page-grid-col"/>
  <line x1="735" y1="125" x2="735" y2="465" class="page-grid-col"/>
  <line x1="485" y1="125" x2="735" y2="125" class="page-grid-row"/>
  <line x1="485" y1="197" x2="735" y2="197" class="page-grid-row"/>
  <line x1="485" y1="209" x2="735" y2="209" class="page-grid-row"/>
  <line x1="485" y1="281" x2="735" y2="281" class="page-grid-row"/>
  <line x1="485" y1="293" x2="735" y2="293" class="page-grid-row"/>
  <line x1="485" y1="365" x2="735" y2="365" class="page-grid-row"/>
  <line x1="485" y1="377" x2="735" y2="377" class="page-grid-row"/>
  <line x1="485" y1="449" x2="735" y2="449" class="page-grid-row"/>
  <g opacity="0.35">
    <line x1="485" y1="137" x2="561" y2="137" class="baseline-line"/>
    <line x1="485" y1="149" x2="561" y2="149" class="baseline-line"/>
    <line x1="485" y1="161" x2="561" y2="161" class="baseline-line"/>
    <line x1="485" y1="173" x2="561" y2="173" class="baseline-line"/>
    <line x1="485" y1="185" x2="561" y2="185" class="baseline-line"/>
  </g>
  <rect x="572" y="209" width="76" height="72" fill="#3B7DD8" fill-opacity="0.08" stroke="#3B7DD8" stroke-width="1.5"/>
  <text x="610" y="249" text-anchor="middle" class="label-bold" fill="#3B7DD8">Module</text>
  <text x="610" y="261" text-anchor="middle" class="label-sm">(Structural Bay)</text>
  <circle cx="485" cy="161" r="2" class="callout-dot"/>
  <line x1="485" y1="161" x2="447" y2="161" class="callout-line"/>
  <text x="443" y="156" text-anchor="end" class="label-bold" fill="#E85D3A">Baseline</text>
  <text x="443" y="168" text-anchor="end" class="label-sm">(Foundation)</text>
  <line x1="561" y1="117" x2="572" y2="117" stroke="#3B7DD8" stroke-width="0.5"/>
  <line x1="561" y1="114" x2="561" y2="120" stroke="#3B7DD8" stroke-width="0.5"/>
  <line x1="572" y1="114" x2="572" y2="120" stroke="#3B7DD8" stroke-width="0.5"/>
  <text x="566" y="112" text-anchor="middle" class="label-sm" fill="#3B7DD8">Gutter</text>
  <line x1="742" y1="197" x2="742" y2="209" stroke="#E85D3A" stroke-width="0.5"/>
  <line x1="739" y1="197" x2="745" y2="197" stroke="#E85D3A" stroke-width="0.5"/>
  <line x1="739" y1="209" x2="745" y2="209" stroke="#E85D3A" stroke-width="0.5"/>
  <text x="757" y="206" class="label-sm" fill="#E85D3A">Row gutter</text>
  <line x1="460" y1="478" x2="485" y2="478" stroke="#BBB" stroke-width="0.5"/>
  <line x1="460" y1="475" x2="460" y2="481" stroke="#BBB" stroke-width="0.5"/>
  <line x1="485" y1="475" x2="485" y2="481" stroke="#BBB" stroke-width="0.5"/>
  <text x="472" y="490" text-anchor="middle" class="label-sm">Margin</text>
  <text x="400" y="508" text-anchor="middle" font-size="11" fill="#999" font-style="italic">Both grids organize space into repeating structural units: one holds a building up, the other holds a layout together.</text>
</svg>
